<?xml version="1.0" encoding="UTF-8"?>
<!DOCTYPE svg PUBLIC "-//W3C//DTD SVG 1.1//EN" "http://www.w3.org/Graphics/SVG/1.1/DTD/svg11.dtd">
<svg xmlns="http://www.w3.org/2000/svg" version="1.1" width="630px" height="591px" style="shape-rendering:geometricPrecision; text-rendering:geometricPrecision; image-rendering:optimizeQuality; fill-rule:evenodd; clip-rule:evenodd" xmlns:xlink="http://www.w3.org/1999/xlink">
<g><path style="opacity:1" fill="#0a0a0a" d="M 294.5,80.5 C 302.278,79.8147 309.612,81.3147 316.5,85C 333.426,94.2674 350.092,103.934 366.5,114C 376.712,123.789 379.212,135.289 374,148.5C 370.205,151.803 366.038,152.303 361.5,150C 332.333,132.167 303.167,114.333 274,96.5C 273.333,95.5 273.333,94.5 274,93.5C 279.987,87.6506 286.82,83.3173 294.5,80.5 Z"/></g>
<g><path style="opacity:1" fill="#0c0c0c" d="M 225.5,82.5 C 249.079,85.2451 262.079,98.4118 264.5,122C 297.01,141.758 330.01,160.758 363.5,179C 369.74,183.98 372.907,190.48 373,198.5C 373.927,215.545 373.593,232.545 372,249.5C 365.032,258.403 357.365,266.736 349,274.5C 345.292,263.959 338.126,256.959 327.5,253.5C 333.184,247.65 338.684,241.65 344,235.5C 344.923,233.966 345.423,232.299 345.5,230.5C 343.666,222.162 341.833,213.828 340,205.5C 338.939,202.438 337.106,199.938 334.5,198C 305.997,181.247 277.33,164.747 248.5,148.5C 229.111,159.9 211.944,157.233 197,140.5C 184.908,117.782 189.741,99.6153 211.5,86C 216.184,84.3473 220.85,83.1807 225.5,82.5 Z M 220.5,96.5 C 240.791,94.9586 250.291,104.292 249,124.5C 244.952,137.448 236.118,143.281 222.5,142C 208.189,137.894 202.022,128.394 204,113.5C 206.684,104.984 212.184,99.3173 220.5,96.5 Z"/></g>
<g><path style="opacity:1" fill="#0a0a0a" d="M 354.5,291.5 C 354.328,290.508 354.662,289.842 355.5,289.5C 364.158,291.335 372.825,292.835 381.5,294C 386.454,290.715 391.12,287.048 395.5,283C 399.422,279.749 402.588,275.916 405,271.5C 406.639,237.547 406.972,203.547 406,169.5C 390.381,158.649 385.048,143.982 390,125.5C 399.907,105.466 415.74,98.2994 437.5,104C 456.039,113.246 463.206,128.08 459,148.5C 455.461,159.37 448.461,167.037 438,171.5C 436.256,205.993 436.09,240.493 437.5,275C 438.498,286.669 434.164,295.669 424.5,302C 412.671,308.414 401.004,315.08 389.5,322C 386.448,324.029 383.114,325.196 379.5,325.5C 368.394,323.473 357.394,320.973 346.5,318C 352.797,310.323 355.464,301.49 354.5,291.5 Z M 421.5,114.5 C 440.759,116.244 448.925,126.577 446,145.5C 438,161.086 426.166,164.919 410.5,157C 397.167,144.333 397.167,131.667 410.5,119C 414.053,116.879 417.72,115.379 421.5,114.5 Z"/></g>
<g><path style="opacity:1" fill="#090909" d="M 186.5,152.5 C 197.421,151.197 206.921,154.197 215,161.5C 217.834,165.456 218.001,169.456 215.5,173.5C 184.82,190.842 153.82,207.675 122.5,224C 121.5,224.667 120.5,224.667 119.5,224C 112.385,204.339 118.052,189.672 136.5,180C 153.1,170.537 169.767,161.37 186.5,152.5 Z"/></g>
<g><path style="opacity:1" fill="#0a0a0a" d="M 464.5,163.5 C 484.945,166.78 495.112,178.78 495,199.5C 495.396,216.058 495.563,232.558 495.5,249C 493.791,264.043 485.624,273.543 471,277.5C 466.667,277.5 463.667,275.5 462,271.5C 461.874,235.421 462.708,199.421 464.5,163.5 Z"/></g>
<g><path style="opacity:1" fill="#0c0c0c" d="M 311.5,246.5 C 311.715,248.179 311.048,249.179 309.5,249.5C 299.705,248.988 291.205,251.988 284,258.5C 281.359,251.272 279.026,243.939 277,236.5C 276.215,234.714 275.049,233.214 273.5,232C 266.167,229.333 258.833,226.667 251.5,224C 247.833,223.333 244.167,223.333 240.5,224C 211.177,239.66 182.177,255.826 153.5,272.5C 152.706,296.626 140.373,310.292 116.5,313.5C 89.3928,309.285 77.8928,293.618 82,266.5C 88.8706,248.303 102.037,239.803 121.5,241C 126.791,241.652 131.624,243.485 136,246.5C 167.895,230.14 199.061,212.64 229.5,194C 234.753,190.749 240.42,188.582 246.5,187.5C 252.811,188.771 258.811,190.937 264.5,194C 278.205,201.712 291.371,210.212 304,219.5C 306.66,228.475 309.16,237.475 311.5,246.5 Z M 115.5,253.5 C 133.603,255.438 141.437,265.438 139,283.5C 135.135,293.861 127.635,299.528 116.5,300.5C 98.3478,297.185 91.1811,286.519 95,268.5C 99.2106,259.773 106.044,254.773 115.5,253.5 Z"/></g>
<g><path style="opacity:0.502" fill="#8d8d8d" d="M 311.5,246.5 C 312.434,247.568 312.768,248.901 312.5,250.5C 311.209,250.737 310.209,250.404 309.5,249.5C 311.048,249.179 311.715,248.179 311.5,246.5 Z"/></g>
<g><path style="opacity:1" fill="#0d0d0d" d="M 265.5,297.5 C 265.158,298.338 264.492,298.672 263.5,298.5C 257.453,297.656 251.453,296.489 245.5,295C 242.833,294.333 240.167,294.333 237.5,295C 231.093,300.619 224.593,306.119 218,311.5C 216.139,313.888 214.806,316.554 214,319.5C 213.571,345.501 213.071,371.501 212.5,397.5C 212.833,404.833 213.167,412.167 213.5,419.5C 232.751,431.695 237.918,448.362 229,469.5C 215.16,488.668 197.66,492.834 176.5,482C 158.96,466.221 156.46,448.387 169,428.5C 172.463,424.77 176.463,421.77 181,419.5C 181.917,379.809 182.917,340.142 184,300.5C 187.086,293.746 191.919,288.579 198.5,285C 212.586,276.958 226.919,269.458 241.5,262.5C 251.988,264.705 262.322,267.372 272.5,270.5C 266.575,278.531 264.242,287.531 265.5,297.5 Z M 192.5,428.5 C 211.159,427.993 220.326,436.993 220,455.5C 214.989,471.925 204.155,477.758 187.5,473C 174.611,465.33 171.111,454.497 177,440.5C 180.695,434.424 185.862,430.424 192.5,428.5 Z"/></g>
<g><path style="opacity:1" fill="#080808" d="M 301.5,263.5 C 312.135,263.658 322.135,266.158 331.5,271C 337.839,280.519 340.672,291.019 340,302.5C 336.294,308.882 331.794,314.715 326.5,320C 323.137,322.789 319.304,324.622 315,325.5C 306.676,324.044 298.51,321.877 290.5,319C 287.567,316.736 285.4,313.902 284,310.5C 282.009,304.201 280.176,297.868 278.5,291.5C 279.118,287.144 280.618,283.144 283,279.5C 288.497,273.154 294.664,267.82 301.5,263.5 Z"/></g>
<g><path style="opacity:1" fill="#0c0c0c" d="M 495.5,281.5 C 521.306,279.978 535.972,291.978 539.5,317.5C 535.951,343.223 521.284,355.056 495.5,353C 489.368,351.351 483.868,348.517 479,344.5C 448.65,360.867 418.817,378.034 389.5,396C 381.612,401.398 373.279,402.398 364.5,399C 349.576,391.067 334.91,382.733 320.5,374C 317.894,372.062 316.061,369.562 315,366.5C 312.869,358.441 310.536,350.441 308,342.5C 307.333,340.833 307.333,339.167 308,337.5C 318.23,339.594 327.396,337.261 335.5,330.5C 338.606,337.575 341.106,344.908 343,352.5C 344.122,354.624 345.622,356.457 347.5,358C 354.637,359.934 361.637,362.268 368.5,365C 372.167,365.667 375.833,365.667 379.5,365C 408.297,349.101 436.963,332.934 465.5,316.5C 468.364,298.641 478.364,286.975 495.5,281.5 Z M 498.5,294.5 C 514.873,293.677 524.206,301.344 526.5,317.5C 524.964,332.038 516.964,339.705 502.5,340.5C 488.574,339.241 480.907,331.574 479.5,317.5C 480.463,305.218 486.797,297.551 498.5,294.5 Z"/></g>
<g><path style="opacity:0.502" fill="#939393" d="M 355.5,289.5 C 354.662,289.842 354.328,290.508 354.5,291.5C 353.224,290.614 353.224,289.614 354.5,288.5C 355.107,288.624 355.44,288.957 355.5,289.5 Z"/></g>
<g><path style="opacity:0.502" fill="#a1a1a1" d="M 265.5,297.5 C 266.885,298.302 266.718,298.969 265,299.5C 264.235,299.43 263.735,299.097 263.5,298.5C 264.492,298.672 265.158,298.338 265.5,297.5 Z"/></g>
<g><path style="opacity:1" fill="#0a0a0a" d="M 146.5,310.5 C 154.856,310.19 158.856,314.19 158.5,322.5C 157.409,356.169 156.242,389.835 155,423.5C 154.311,424.357 153.478,425.023 152.5,425.5C 145.888,422.861 139.554,419.694 133.5,416C 128.76,411.127 125.927,405.293 125,398.5C 124.333,376.833 124.333,355.167 125,333.5C 128.337,322.249 135.504,314.582 146.5,310.5 Z"/></g>
<g><path style="opacity:1" fill="#0b0b0b" d="M 269.5,314.5 C 272.551,318.422 275.551,322.589 278.5,327C 282.692,330.532 287.359,333.198 292.5,335C 286.667,341.5 280.833,348 275,354.5C 275.322,365.778 277.322,376.778 281,387.5C 282.5,389 284,390.5 285.5,392C 312.833,408 340.167,424 367.5,440C 374.198,438.333 381.032,436.833 388,435.5C 413.736,438.987 425.736,453.654 424,479.5C 416.858,501.825 401.691,510.992 378.5,507C 360.172,499.873 351.172,486.373 351.5,466.5C 321.157,447.324 290.157,429.158 258.5,412C 252.079,408.33 248.245,402.83 247,395.5C 246.333,377.833 246.333,360.167 247,342.5C 247.249,339.823 248.249,337.49 250,335.5C 257.073,328.931 263.573,321.931 269.5,314.5 Z M 381.5,449.5 C 396.495,447.24 406.328,453.24 411,467.5C 411.391,488.44 401.225,497.274 380.5,494C 366.423,486.659 362.256,475.492 368,460.5C 371.702,455.748 376.202,452.082 381.5,449.5 Z"/></g>
<g><path style="opacity:1" fill="#090909" d="M 498.5,363.5 C 501.645,364.077 503.145,366.077 503,369.5C 506.55,384.532 502.05,396.366 489.5,405C 471.445,416.362 452.779,426.696 433.5,436C 423.09,437.197 413.924,434.364 406,427.5C 402.633,422.762 402.799,418.262 406.5,414C 437.421,397.378 468.088,380.545 498.5,363.5 Z"/></g>
<g><path style="opacity:1" fill="#0b0b0b" d="M 248.5,437.5 C 252.131,437.16 255.464,437.994 258.5,440C 284.667,456.251 311,472.251 337.5,488C 340.623,489.882 343.289,492.215 345.5,495C 335.422,507.472 322.756,511.472 307.5,507C 289.174,497.172 271.174,486.839 253.5,476C 243.416,467.412 239.916,456.579 243,443.5C 244.36,440.977 246.193,438.977 248.5,437.5 Z"/></g>
</svg>
