<?xml version="1.0" encoding="UTF-8"?>
<!DOCTYPE svg PUBLIC "-//W3C//DTD SVG 1.1//EN" "http://www.w3.org/Graphics/SVG/1.1/DTD/svg11.dtd">
<svg xmlns="http://www.w3.org/2000/svg" version="1.1" width="3163px" height="591px" style="shape-rendering:geometricPrecision; text-rendering:geometricPrecision; image-rendering:optimizeQuality; fill-rule:evenodd; clip-rule:evenodd" xmlns:xlink="http://www.w3.org/1999/xlink">
<g><path style="opacity:0.971" fill="#fefffe" d="M 294.5,80.5 C 302.278,79.8147 309.612,81.3147 316.5,85C 333.426,94.2674 350.092,103.934 366.5,114C 376.712,123.789 379.212,135.289 374,148.5C 370.205,151.803 366.038,152.303 361.5,150C 332.333,132.167 303.167,114.333 274,96.5C 273.333,95.5 273.333,94.5 274,93.5C 279.987,87.6506 286.82,83.3173 294.5,80.5 Z"/></g>
<g><path style="opacity:0.967" fill="#fefffe" d="M 225.5,82.5 C 249.079,85.2451 262.079,98.4118 264.5,122C 297.01,141.758 330.01,160.758 363.5,179C 369.74,183.98 372.907,190.48 373,198.5C 373.927,215.545 373.593,232.545 372,249.5C 365.032,258.403 357.365,266.736 349,274.5C 345.292,263.959 338.126,256.959 327.5,253.5C 333.184,247.65 338.684,241.65 344,235.5C 344.923,233.966 345.423,232.299 345.5,230.5C 343.666,222.162 341.833,213.828 340,205.5C 338.939,202.438 337.106,199.938 334.5,198C 305.997,181.247 277.33,164.747 248.5,148.5C 229.111,159.9 211.944,157.233 197,140.5C 184.908,117.782 189.741,99.6153 211.5,86C 216.184,84.3473 220.85,83.1807 225.5,82.5 Z M 220.5,96.5 C 240.791,94.9586 250.291,104.292 249,124.5C 244.952,137.448 236.118,143.281 222.5,142C 208.189,137.894 202.022,128.394 204,113.5C 206.684,104.984 212.184,99.3173 220.5,96.5 Z"/></g>
<g><path style="opacity:0.97" fill="#fefffe" d="M 419.5,101.5 C 449.533,103.031 462.7,118.697 459,148.5C 455.461,159.37 448.461,167.037 438,171.5C 436.256,205.993 436.09,240.493 437.5,275C 438.498,286.669 434.164,295.669 424.5,302C 410.995,309.92 397.328,317.587 383.5,325C 370.949,324.115 358.615,321.782 346.5,318C 349.567,314.703 351.733,310.869 353,306.5C 354.445,300.45 354.945,294.45 354.5,288.5C 363.383,291.176 372.383,293.01 381.5,294C 386.454,290.715 391.12,287.048 395.5,283C 399.422,279.749 402.588,275.916 405,271.5C 406.639,237.547 406.972,203.547 406,169.5C 390.381,158.649 385.048,143.982 390,125.5C 395.825,112.503 405.658,104.503 419.5,101.5 Z M 421.5,114.5 C 440.759,116.244 448.925,126.577 446,145.5C 438,161.086 426.166,164.919 410.5,157C 397.167,144.333 397.167,131.667 410.5,119C 414.053,116.879 417.72,115.379 421.5,114.5 Z"/></g>
<g><path style="opacity:0.975" fill="#fefffe" d="M 186.5,152.5 C 197.421,151.197 206.921,154.197 215,161.5C 217.834,165.456 218.001,169.456 215.5,173.5C 184.82,190.842 153.82,207.675 122.5,224C 121.5,224.667 120.5,224.667 119.5,224C 112.385,204.339 118.052,189.672 136.5,180C 153.1,170.537 169.767,161.37 186.5,152.5 Z"/></g>
<g><path style="opacity:0.969" fill="#fefffe" d="M 464.5,163.5 C 484.945,166.78 495.112,178.78 495,199.5C 495.396,216.058 495.563,232.558 495.5,249C 493.791,264.043 485.624,273.543 471,277.5C 466.667,277.5 463.667,275.5 462,271.5C 461.874,235.421 462.708,199.421 464.5,163.5 Z"/></g>
<g><path style="opacity:0.966" fill="#fefffe" d="M 244.5,187.5 C 251.612,188.219 258.279,190.386 264.5,194C 278.205,201.712 291.371,210.212 304,219.5C 307.147,229.772 309.981,240.105 312.5,250.5C 301.614,248.309 292.114,250.976 284,258.5C 281.359,251.272 279.026,243.939 277,236.5C 276.215,234.714 275.049,233.214 273.5,232C 266.167,229.333 258.833,226.667 251.5,224C 247.833,223.333 244.167,223.333 240.5,224C 211.177,239.66 182.177,255.826 153.5,272.5C 152.706,296.626 140.373,310.292 116.5,313.5C 94.5733,311.074 82.5733,298.907 80.5,277C 84.0649,249.883 99.3983,238.216 126.5,242C 129.864,243.099 133.03,244.599 136,246.5C 167.895,230.14 199.061,212.64 229.5,194C 234.367,191.226 239.367,189.059 244.5,187.5 Z M 115.5,253.5 C 133.603,255.438 141.437,265.438 139,283.5C 135.135,293.861 127.635,299.528 116.5,300.5C 98.3478,297.185 91.1811,286.519 95,268.5C 99.2106,259.773 106.044,254.773 115.5,253.5 Z"/></g>
<g><path style="opacity:0.98" fill="#fefffe" d="M 760.5,193.5 C 787.169,193.333 813.835,193.5 840.5,194C 843.911,194.117 846.411,195.617 848,198.5C 849.597,212.778 849.93,227.111 849,241.5C 848.833,247 846,249.833 840.5,250C 818.167,250.333 795.833,250.667 773.5,251C 768.333,252.167 765.167,255.333 764,260.5C 763.027,286.896 763.36,313.229 765,339.5C 767.342,342.754 770.509,344.588 774.5,345C 796.5,345.333 818.5,345.667 840.5,346C 846,346.167 848.833,349 849,354.5C 849.667,367.5 849.667,380.5 849,393.5C 848.594,396.494 847.094,398.661 844.5,400C 829.064,401.144 813.564,401.644 798,401.5C 783.5,401.333 769,401.167 754.5,401C 735.503,400.567 719.67,393.4 707,379.5C 702.037,371.901 699.037,363.567 698,354.5C 697.333,316.5 697.333,278.5 698,240.5C 701.202,218.576 713.369,204.409 734.5,198C 743.204,195.88 751.871,194.38 760.5,193.5 Z"/></g>
<g><path style="opacity:0.982" fill="#fefffe" d="M 889.5,193.5 C 936.872,193.025 984.205,193.525 1031.5,195C 1033.04,196.579 1034.21,198.413 1035,200.5C 1035.67,214.167 1035.67,227.833 1035,241.5C 1034.55,243.519 1033.72,245.352 1032.5,247C 1003.59,248.484 974.588,248.984 945.5,248.5C 945.5,255.833 945.5,263.167 945.5,270.5C 965.836,270.333 986.169,270.5 1006.5,271C 1009.88,272.38 1011.72,274.88 1012,278.5C 1012.67,290.5 1012.67,302.5 1012,314.5C 1011.59,317.494 1010.09,319.661 1007.5,321C 986.9,322.465 966.234,322.965 945.5,322.5C 945.5,330.5 945.5,338.5 945.5,346.5C 973.502,346.333 1001.5,346.5 1029.5,347C 1031.29,347.785 1032.79,348.951 1034,350.5C 1035.62,365.098 1035.95,379.765 1035,394.5C 1034.17,398 1032,400.167 1028.5,401C 981.5,401.667 934.5,401.667 887.5,401C 885.152,400.654 883.319,399.487 882,397.5C 880.344,331.891 880.011,266.224 881,200.5C 882.274,196.042 885.107,193.709 889.5,193.5 Z"/></g>
<g><path style="opacity:0.986" fill="#fefffe" d="M 1076.5,193.5 C 1088.17,193.333 1099.84,193.5 1111.5,194C 1115.56,194.351 1119.22,195.685 1122.5,198C 1142.59,219.698 1162.09,241.864 1181,264.5C 1181.33,242.5 1181.67,220.5 1182,198.5C 1183.76,195.732 1186.26,194.232 1189.5,194C 1205.5,193.333 1221.5,193.333 1237.5,194C 1240.28,194.066 1242.44,195.232 1244,197.5C 1245.16,230.916 1245.66,264.416 1245.5,298C 1245.33,330.833 1245.17,363.667 1245,396.5C 1243.66,399.094 1241.49,400.594 1238.5,401C 1221.83,401.667 1205.17,401.667 1188.5,401C 1185.51,400.594 1183.34,399.094 1182,396.5C 1181.67,382.833 1181.33,369.167 1181,355.5C 1165.33,336.5 1149.67,317.5 1134,298.5C 1133.31,299.025 1132.81,299.692 1132.5,300.5C 1132.67,329.34 1133.01,358.84 1133.5,389C 1132.93,392.251 1132.1,395.417 1131,398.5C 1129.35,399.717 1127.52,400.55 1125.5,401C 1108.83,401.667 1092.17,401.667 1075.5,401C 1073.13,400.464 1071.13,399.297 1069.5,397.5C 1068.34,331.541 1068.17,265.541 1069,199.5C 1070.54,196.108 1073.04,194.108 1076.5,193.5 Z"/></g>
<g><path style="opacity:0.98" fill="#fefffe" d="M 1281.5,193.5 C 1334.88,193.017 1388.21,193.517 1441.5,195C 1442.67,196.167 1443.83,197.333 1445,198.5C 1445.67,214.167 1445.67,229.833 1445,245.5C 1443.24,248.268 1440.74,249.768 1437.5,250C 1422.84,250.5 1408.17,250.667 1393.5,250.5C 1393.67,298.501 1393.5,346.501 1393,394.5C 1392.17,398 1390,400.167 1386.5,401C 1368.5,401.667 1350.5,401.667 1332.5,401C 1329.51,400.594 1327.34,399.094 1326,396.5C 1325.5,347.834 1325.33,299.168 1325.5,250.5C 1310.83,250.667 1296.16,250.5 1281.5,250C 1277.06,249.87 1274.23,247.704 1273,243.5C 1272.33,229.5 1272.33,215.5 1273,201.5C 1273.84,196.487 1276.67,193.82 1281.5,193.5 Z"/></g>
<g><path style="opacity:0.982" fill="#fefffe" d="M 1481.5,193.5 C 1519.86,193.064 1558.19,193.564 1596.5,195C 1620.58,198.417 1633.75,212.25 1636,236.5C 1636.78,247.202 1636.44,257.869 1635,268.5C 1633.59,277.23 1629.09,283.73 1621.5,288C 1637.59,290.762 1648.09,299.928 1653,315.5C 1654.13,329.615 1654.63,343.781 1654.5,358C 1654.65,371.591 1654.15,385.091 1653,398.5C 1651.35,399.717 1649.52,400.55 1647.5,401C 1629.1,401.96 1610.77,401.627 1592.5,400C 1590.51,398.681 1589.35,396.848 1589,394.5C 1588.96,375.768 1588.3,357.102 1587,338.5C 1584.66,336.226 1581.82,335.059 1578.5,335C 1565.17,334.5 1551.84,334.333 1538.5,334.5C 1538.67,354.836 1538.5,375.169 1538,395.5C 1537.22,397.286 1536.05,398.786 1534.5,400C 1516.57,401.626 1498.57,401.959 1480.5,401C 1477.72,400.934 1475.56,399.768 1474,397.5C 1472.34,332.224 1472.01,266.891 1473,201.5C 1473.84,196.487 1476.67,193.82 1481.5,193.5 Z M 1538.5,246.5 C 1546.84,246.334 1555.17,246.5 1563.5,247C 1567.53,247.427 1570.03,249.594 1571,253.5C 1571.67,260.5 1571.67,267.5 1571,274.5C 1570.12,277.102 1568.62,279.269 1566.5,281C 1557.25,282.417 1547.91,282.917 1538.5,282.5C 1538.5,270.5 1538.5,258.5 1538.5,246.5 Z"/></g>
<g><path style="opacity:0.982" fill="#fefffe" d="M 1730.5,193.5 C 1757.84,193.333 1785.17,193.5 1812.5,194C 1819.41,194.905 1823.91,198.738 1826,205.5C 1834.67,228.167 1843.33,250.833 1852,273.5C 1855.45,282.956 1858.11,292.622 1860,302.5C 1861.61,333.136 1861.94,363.803 1861,394.5C 1860.07,398.395 1857.57,400.562 1853.5,401C 1836.83,401.667 1820.17,401.667 1803.5,401C 1799.98,400.496 1797.48,398.663 1796,395.5C 1795.5,380.504 1795.33,365.504 1795.5,350.5C 1778.83,350.5 1762.17,350.5 1745.5,350.5C 1745.67,365.504 1745.5,380.504 1745,395.5C 1744.22,397.286 1743.05,398.786 1741.5,400C 1723.9,401.625 1706.23,401.959 1688.5,401C 1685,400.167 1682.83,398 1682,394.5C 1681.33,365.833 1681.33,337.167 1682,308.5C 1683.59,296.475 1686.59,284.808 1691,273.5C 1699.67,250.833 1708.33,228.167 1717,205.5C 1719.26,198.729 1723.76,194.729 1730.5,193.5 Z M 1764.5,250.5 C 1768.51,250.334 1772.51,250.501 1776.5,251C 1777,251.5 1777.5,252 1778,252.5C 1782.64,267.412 1787.47,282.245 1792.5,297C 1777.83,297.667 1763.17,297.667 1748.5,297C 1753.23,282.921 1757.73,268.755 1762,254.5C 1762.66,253.016 1763.5,251.683 1764.5,250.5 Z"/></g>
<g><path style="opacity:0.982" fill="#fefffe" d="M 1904.5,193.5 C 1920.84,193.333 1937.17,193.5 1953.5,194C 1957.12,194.284 1959.62,196.117 1961,199.5C 1961.5,248.499 1961.67,297.499 1961.5,346.5C 1974.5,346.5 1987.5,346.5 2000.5,346.5C 2000.33,329.163 2000.5,311.83 2001,294.5C 2001.47,293.069 2002.3,291.903 2003.5,291C 2012.76,289.874 2022.1,289.374 2031.5,289.5C 2040.9,289.374 2050.24,289.874 2059.5,291C 2061.49,292.319 2062.65,294.152 2063,296.5C 2063.67,329.167 2063.67,361.833 2063,394.5C 2062.65,396.848 2061.49,398.681 2059.5,400C 2007.22,401.653 1954.89,401.987 1902.5,401C 1900.15,400.654 1898.32,399.487 1897,397.5C 1895.34,331.915 1895.01,266.249 1896,200.5C 1897.25,196.072 1900.08,193.739 1904.5,193.5 Z"/></g>
<g><path style="opacity:0.979" fill="#fefffe" d="M 2099.5,193.5 C 2143.21,193.027 2186.87,193.527 2230.5,195C 2232.04,196.579 2233.21,198.413 2234,200.5C 2234.95,215.901 2234.62,231.235 2233,246.5C 2230.96,248.604 2228.46,249.771 2225.5,250C 2215.84,250.5 2206.17,250.666 2196.5,250.5C 2196.5,282.167 2196.5,313.833 2196.5,345.5C 2207.89,345.117 2219.22,345.617 2230.5,347C 2231.33,347.833 2232.17,348.667 2233,349.5C 2234.12,357.427 2234.62,365.427 2234.5,373.5C 2234.62,381.573 2234.12,389.573 2233,397.5C 2231.68,399.487 2229.85,400.654 2227.5,401C 2184.17,401.667 2140.83,401.667 2097.5,401C 2095.15,400.654 2093.32,399.487 2092,397.5C 2090.86,389.766 2090.36,381.932 2090.5,374C 2090.38,365.76 2090.88,357.594 2092,349.5C 2093.89,347.114 2096.39,345.947 2099.5,346C 2109.49,345.5 2119.49,345.334 2129.5,345.5C 2129.5,313.833 2129.5,282.167 2129.5,250.5C 2119.49,250.666 2109.49,250.5 2099.5,250C 2096.54,249.771 2094.04,248.604 2092,246.5C 2090.37,231.259 2090.03,215.926 2091,200.5C 2092.25,196.072 2095.08,193.739 2099.5,193.5 Z"/></g>
<g><path style="opacity:0.981" fill="#fefffe" d="M 2275.5,193.5 C 2321.17,193.333 2366.83,193.5 2412.5,194C 2415.74,194.232 2418.24,195.732 2420,198.5C 2420.95,218.552 2420.62,238.552 2419,258.5C 2395.62,287.425 2372.12,316.258 2348.5,345C 2371.5,345.333 2394.5,345.667 2417.5,346C 2423.43,346.346 2426.26,349.512 2426,355.5C 2426.67,367.833 2426.67,380.167 2426,392.5C 2425.92,397.502 2423.42,400.335 2418.5,401C 2368.83,401.667 2319.17,401.667 2269.5,401C 2267.48,400.55 2265.65,399.717 2264,398.5C 2262.86,389.43 2262.36,380.263 2262.5,371C 2262.39,361.11 2262.89,351.277 2264,341.5C 2288.12,311.043 2312.62,280.877 2337.5,251C 2316.83,250.667 2296.17,250.333 2275.5,250C 2271.98,249.496 2269.48,247.663 2268,244.5C 2267.33,229.5 2267.33,214.5 2268,199.5C 2269.54,196.108 2272.04,194.108 2275.5,193.5 Z"/></g>
<g><path style="opacity:0.982" fill="#fefffe" d="M 2502.5,193.5 C 2529.84,193.333 2557.17,193.5 2584.5,194C 2591.41,194.905 2595.91,198.738 2598,205.5C 2606.67,228.167 2615.33,250.833 2624,273.5C 2627.48,282.604 2630.15,291.937 2632,301.5C 2633.61,332.47 2633.95,363.47 2633,394.5C 2632.17,398 2630,400.167 2626.5,401C 2609.5,401.667 2592.5,401.667 2575.5,401C 2571.98,400.496 2569.48,398.663 2568,395.5C 2567.5,380.504 2567.33,365.504 2567.5,350.5C 2550.83,350.5 2534.17,350.5 2517.5,350.5C 2517.67,365.504 2517.5,380.504 2517,395.5C 2516.49,397.521 2515.32,399.021 2513.5,400C 2496.23,401.624 2478.9,401.958 2461.5,401C 2457,400.5 2454.5,398 2454,393.5C 2453.33,365.833 2453.33,338.167 2454,310.5C 2455.41,298.873 2458.07,287.54 2462,276.5C 2471.14,252.088 2480.47,227.755 2490,203.5C 2492.32,197.667 2496.48,194.334 2502.5,193.5 Z M 2536.5,250.5 C 2540.51,250.334 2544.51,250.501 2548.5,251C 2549,251.5 2549.5,252 2550,252.5C 2554.91,267.327 2559.75,282.16 2564.5,297C 2550.17,297.5 2535.84,297.667 2521.5,297.5C 2525.43,281.425 2530.43,265.758 2536.5,250.5 Z"/></g>
<g><path style="opacity:0.979" fill="#fefffe" d="M 2736.5,193.5 C 2780.21,193.027 2823.87,193.527 2867.5,195C 2869.49,196.319 2870.65,198.152 2871,200.5C 2871.97,215.926 2871.63,231.259 2870,246.5C 2867.96,248.604 2865.46,249.771 2862.5,250C 2852.84,250.5 2843.17,250.666 2833.5,250.5C 2833.5,282.167 2833.5,313.833 2833.5,345.5C 2844.89,345.117 2856.22,345.617 2867.5,347C 2868.33,347.833 2869.17,348.667 2870,349.5C 2871.14,357.401 2871.64,365.401 2871.5,373.5C 2871.64,381.599 2871.14,389.599 2870,397.5C 2868.68,399.487 2866.85,400.654 2864.5,401C 2821.17,401.667 2777.83,401.667 2734.5,401C 2732.15,400.654 2730.32,399.487 2729,397.5C 2727.88,389.573 2727.38,381.573 2727.5,373.5C 2727.38,365.427 2727.88,357.427 2729,349.5C 2730.89,347.114 2733.39,345.947 2736.5,346C 2746.49,345.5 2756.49,345.334 2766.5,345.5C 2766.5,313.833 2766.5,282.167 2766.5,250.5C 2756.49,250.666 2746.49,250.5 2736.5,250C 2733.54,249.771 2731.04,248.604 2729,246.5C 2727.38,231.235 2727.05,215.901 2728,200.5C 2729.27,196.042 2732.11,193.709 2736.5,193.5 Z"/></g>
<g><path style="opacity:0.982" fill="#fefffe" d="M 2950.5,193.5 C 2977.84,193.333 3005.17,193.5 3032.5,194C 3038.68,194.51 3042.84,197.677 3045,203.5C 3054.67,228.833 3064.33,254.167 3074,279.5C 3076.47,287.042 3078.47,294.709 3080,302.5C 3081.59,332.808 3081.93,363.142 3081,393.5C 3080.5,398 3078,400.5 3073.5,401C 3055.45,401.946 3037.45,401.612 3019.5,400C 3017.95,398.786 3016.78,397.286 3016,395.5C 3015.5,380.504 3015.33,365.504 3015.5,350.5C 2998.83,350.5 2982.17,350.5 2965.5,350.5C 2965.67,365.17 2965.5,379.837 2965,394.5C 2964.65,396.848 2963.49,398.681 2961.5,400C 2943.9,401.625 2926.23,401.959 2908.5,401C 2905,400.167 2902.83,398 2902,394.5C 2901.33,365.5 2901.33,336.5 2902,307.5C 2903.75,295.837 2906.75,284.504 2911,273.5C 2920,249.833 2929,226.167 2938,202.5C 2940.69,197.294 2944.85,194.294 2950.5,193.5 Z M 2984.5,250.5 C 2988.51,250.334 2992.51,250.501 2996.5,251C 3002.59,266.102 3007.59,281.602 3011.5,297.5C 2997.16,297.667 2982.83,297.5 2968.5,297C 2972.99,282.861 2977.49,268.694 2982,254.5C 2982.66,253.016 2983.5,251.683 2984.5,250.5 Z"/></g>
<g><path style="opacity:0.965" fill="#fefffe" d="M 239.5,262.5 C 250.705,264.407 261.705,267.073 272.5,270.5C 266.068,278.892 264.068,288.226 266.5,298.5C 266,298.833 265.5,299.167 265,299.5C 256.016,296.625 246.849,295.125 237.5,295C 231.093,300.619 224.593,306.119 218,311.5C 216.139,313.888 214.806,316.554 214,319.5C 213.571,345.501 213.071,371.501 212.5,397.5C 212.833,404.833 213.167,412.167 213.5,419.5C 229.632,429.048 235.798,443.048 232,461.5C 224.454,481.694 209.954,490.194 188.5,487C 167.218,479.606 158.385,464.772 162,442.5C 164.808,431.866 171.141,424.199 181,419.5C 181.917,379.809 182.917,340.142 184,300.5C 185.647,295.844 188.48,292.011 192.5,289C 207.937,279.619 223.604,270.785 239.5,262.5 Z M 192.5,428.5 C 211.159,427.993 220.326,436.993 220,455.5C 214.989,471.925 204.155,477.758 187.5,473C 174.611,465.33 171.111,454.497 177,440.5C 180.695,434.424 185.862,430.424 192.5,428.5 Z"/></g>
<g><path style="opacity:0.978" fill="#fefffe" d="M 301.5,263.5 C 312.135,263.658 322.135,266.158 331.5,271C 337.839,280.519 340.672,291.019 340,302.5C 336.294,308.882 331.794,314.715 326.5,320C 323.137,322.789 319.304,324.622 315,325.5C 306.676,324.044 298.51,321.877 290.5,319C 287.567,316.736 285.4,313.902 284,310.5C 282.009,304.201 280.176,297.868 278.5,291.5C 279.118,287.144 280.618,283.144 283,279.5C 288.497,273.154 294.664,267.82 301.5,263.5 Z"/></g>
<g><path style="opacity:0.967" fill="#fefffe" d="M 495.5,281.5 C 521.306,279.978 535.972,291.978 539.5,317.5C 535.951,343.223 521.284,355.056 495.5,353C 489.368,351.351 483.868,348.517 479,344.5C 448.65,360.867 418.817,378.034 389.5,396C 381.612,401.398 373.279,402.398 364.5,399C 349.576,391.067 334.91,382.733 320.5,374C 317.894,372.062 316.061,369.562 315,366.5C 312.869,358.441 310.536,350.441 308,342.5C 307.333,340.833 307.333,339.167 308,337.5C 318.23,339.594 327.396,337.261 335.5,330.5C 338.606,337.575 341.106,344.908 343,352.5C 344.122,354.624 345.622,356.457 347.5,358C 354.637,359.934 361.637,362.268 368.5,365C 372.167,365.667 375.833,365.667 379.5,365C 408.297,349.101 436.963,332.934 465.5,316.5C 468.364,298.641 478.364,286.975 495.5,281.5 Z M 498.5,294.5 C 514.873,293.677 524.206,301.344 526.5,317.5C 524.964,332.038 516.964,339.705 502.5,340.5C 488.574,339.241 480.907,331.574 479.5,317.5C 480.463,305.218 486.797,297.551 498.5,294.5 Z"/></g>
<g><path style="opacity:0.974" fill="#fefffe" d="M 146.5,310.5 C 154.856,310.19 158.856,314.19 158.5,322.5C 157.409,356.169 156.242,389.835 155,423.5C 154.311,424.357 153.478,425.023 152.5,425.5C 145.888,422.861 139.554,419.694 133.5,416C 128.76,411.127 125.927,405.293 125,398.5C 124.333,376.833 124.333,355.167 125,333.5C 128.337,322.249 135.504,314.582 146.5,310.5 Z"/></g>
<g><path style="opacity:0.969" fill="#fefffe" d="M 269.5,314.5 C 272.551,318.422 275.551,322.589 278.5,327C 282.692,330.532 287.359,333.198 292.5,335C 286.667,341.5 280.833,348 275,354.5C 275.322,365.778 277.322,376.778 281,387.5C 282.5,389 284,390.5 285.5,392C 312.833,408 340.167,424 367.5,440C 374.198,438.333 381.032,436.833 388,435.5C 413.736,438.987 425.736,453.654 424,479.5C 416.858,501.825 401.691,510.992 378.5,507C 360.172,499.873 351.172,486.373 351.5,466.5C 321.157,447.324 290.157,429.158 258.5,412C 252.079,408.33 248.245,402.83 247,395.5C 246.333,377.833 246.333,360.167 247,342.5C 247.249,339.823 248.249,337.49 250,335.5C 257.073,328.931 263.573,321.931 269.5,314.5 Z M 381.5,449.5 C 396.495,447.24 406.328,453.24 411,467.5C 411.391,488.44 401.225,497.274 380.5,494C 366.423,486.659 362.256,475.492 368,460.5C 371.702,455.748 376.202,452.082 381.5,449.5 Z"/></g>
<g><path style="opacity:0.975" fill="#fefffe" d="M 498.5,363.5 C 501.645,364.077 503.145,366.077 503,369.5C 506.55,384.532 502.05,396.366 489.5,405C 471.445,416.362 452.779,426.696 433.5,436C 423.09,437.197 413.924,434.364 406,427.5C 402.633,422.762 402.799,418.262 406.5,414C 437.421,397.378 468.088,380.545 498.5,363.5 Z"/></g>
<g><path style="opacity:0.969" fill="#fefffe" d="M 248.5,437.5 C 252.131,437.16 255.464,437.994 258.5,440C 284.667,456.251 311,472.251 337.5,488C 340.623,489.882 343.289,492.215 345.5,495C 335.422,507.472 322.756,511.472 307.5,507C 289.174,497.172 271.174,486.839 253.5,476C 243.416,467.412 239.916,456.579 243,443.5C 244.36,440.977 246.193,438.977 248.5,437.5 Z"/></g>
</svg>
