<?xml version="1.0" standalone="no"?>
<!DOCTYPE svg PUBLIC "-//W3C//DTD SVG 20010904//EN"
 "http://www.w3.org/TR/2001/REC-SVG-20010904/DTD/svg10.dtd">
<svg version="1.0" xmlns="http://www.w3.org/2000/svg"
 width="50.000000pt" height="50.000000pt" viewBox="0 0 50.000000 50.000000"
 preserveAspectRatio="xMidYMid meet">

<g transform="translate(0.000000,50.000000) scale(0.100000,-0.100000)"
fill="#000000" stroke="none">
<path d="M171 434 c-19 -8 -49 -31 -69 -51 l-34 -37 33 -27 33 -27 18 30 c10
16 35 36 56 45 34 14 41 14 82 0 43 -16 45 -15 67 5 13 12 23 25 23 30 0 17
-85 48 -130 47 -25 0 -60 -6 -79 -15z"/>
<path d="M260 245 l0 -35 56 0 56 0 -20 -35 -21 -34 28 -21 c23 -16 31 -17 40
-7 21 26 41 87 41 127 l0 40 -90 0 -90 0 0 -35z"/>
</g>
</svg>
