<?xml version="1.0" standalone="no"?>
<!DOCTYPE svg PUBLIC "-//W3C//DTD SVG 20010904//EN"
 "http://www.w3.org/TR/2001/REC-SVG-20010904/DTD/svg10.dtd">
<svg version="1.0" xmlns="http://www.w3.org/2000/svg"
 width="500.000000pt" height="500.000000pt" viewBox="0 0 500.000000 500.000000"
 preserveAspectRatio="xMidYMid meet">

<g transform="translate(0.000000,500.000000) scale(0.100000,-0.100000)"
fill="#000000" stroke="none">
<path d="M2147 4382 c-15 -16 -17 -55 -17 -335 l0 -317 -105 0 -105 0 0 206
c0 122 -4 213 -10 225 -7 12 -21 19 -40 19 -19 0 -33 -7 -40 -19 -6 -12 -10
-102 -10 -224 l0 -205 -81 -4 c-66 -3 -83 -7 -95 -23 -18 -24 -18 -40 2 -59
14 -14 105 -16 854 -16 749 0 840 2 854 16 20 19 20 35 2 60 -12 16 -29 20
-105 22 l-91 4 0 212 c0 223 -3 236 -45 236 -42 0 -45 -13 -45 -237 l0 -213
-110 0 -110 0 0 323 c0 340 -1 347 -45 347 -44 0 -45 -7 -45 -347 l0 -323
-110 0 -110 0 0 213 c0 152 -3 216 -12 225 -19 19 -66 15 -78 -7 -6 -12 -10
-103 -10 -225 l0 -206 -105 0 -105 0 0 319 c0 277 -2 322 -16 335 -21 21 -47
20 -67 -2z"/>
<path d="M1645 3456 c-43 -19 -94 -74 -106 -116 -6 -23 -9 -318 -7 -861 l3
-825 24 -36 c13 -19 40 -46 59 -59 l36 -24 846 0 846 0 36 24 c19 13 46 40 59
59 l24 36 0 846 0 846 -24 36 c-13 19 -40 46 -59 59 l-36 24 -835 2 c-676 2
-842 0 -866 -11z m1675 -91 c62 -32 60 3 60 -865 0 -687 -2 -795 -15 -820 -32
-62 3 -60 -865 -60 -868 0 -833 -2 -865 60 -13 25 -15 133 -15 820 0 865 -2
832 58 864 41 23 1599 23 1642 1z"/>
<path d="M2981 2994 c-21 -15 -21 -18 -21 -494 0 -422 2 -480 16 -494 19 -19
35 -20 57 -3 16 11 17 50 15 501 -3 489 -3 489 -24 497 -14 5 -29 2 -43 -7z"/>
<path d="M2282 2987 c-18 -22 -332 -920 -332 -950 0 -19 7 -30 23 -36 35 -14
60 9 85 80 12 35 29 83 38 107 l16 42 205 -2 206 -3 37 -105 c20 -57 44 -108
52 -114 22 -13 65 1 71 23 5 20 -312 931 -333 956 -15 19 -54 20 -68 2z m117
-411 c45 -126 81 -233 81 -238 0 -4 -74 -8 -165 -8 -91 0 -165 3 -165 6 0 9
164 473 166 471 2 -1 39 -105 83 -231z"/>
<path d="M1289 3353 c-9 -10 -15 -49 -17 -105 l-4 -88 -212 0 c-223 0 -236 -3
-236 -45 0 -42 13 -45 237 -45 l213 0 0 -110 0 -110 -323 0 c-340 0 -347 -1
-347 -45 0 -44 7 -45 347 -45 l323 0 0 -110 0 -110 -213 0 c-225 0 -237 -2
-237 -46 0 -48 28 -54 247 -54 l203 0 0 -105 0 -105 -316 0 c-198 0 -322 -4
-335 -10 -26 -14 -26 -66 0 -80 13 -6 137 -10 335 -10 l316 0 0 -105 0 -105
-206 0 c-122 0 -213 -4 -225 -10 -26 -14 -26 -66 0 -80 12 -6 103 -10 225 -10
l206 0 0 -64 c0 -105 27 -144 76 -111 l24 15 0 840 c0 749 -2 840 -16 854 -20
21 -48 20 -65 -1z"/>
<path d="M3646 3354 c-14 -14 -16 -105 -16 -854 0 -749 2 -840 16 -854 19 -20
35 -20 60 -2 16 12 20 29 22 105 l4 91 212 0 c223 0 236 3 236 45 0 42 -13 45
-237 45 l-213 0 0 110 0 110 324 0 c348 0 352 0 344 52 -6 44 -32 48 -360 48
l-308 0 0 105 0 105 213 0 c223 0 237 3 237 45 -1 49 -5 50 -235 53 l-215 3 0
105 0 104 316 0 c198 0 322 4 335 10 12 7 19 21 19 40 0 19 -7 33 -19 40 -13
6 -137 10 -335 10 l-316 0 0 105 0 105 206 0 c122 0 213 4 225 10 12 7 19 21
19 40 0 19 -7 33 -19 40 -12 6 -102 10 -224 10 l-205 0 -4 81 c-3 66 -7 83
-23 95 -24 18 -40 18 -59 -2z"/>
<path d="M1646 1354 c-20 -19 -20 -35 -2 -60 12 -16 29 -20 105 -22 l91 -4 0
-212 c0 -223 3 -236 45 -236 42 0 45 13 45 237 l0 213 110 0 110 0 0 -324 c0
-348 0 -352 52 -344 44 6 48 32 48 361 l0 307 105 0 105 0 0 -213 c0 -152 3
-216 12 -225 19 -19 66 -15 78 7 6 12 10 103 10 225 l0 206 105 0 105 0 0
-319 c0 -277 2 -322 16 -335 21 -21 47 -20 67 2 15 16 17 55 17 335 l0 317
105 0 105 0 0 -206 c0 -122 4 -213 10 -225 14 -26 66 -26 80 0 6 12 10 102 10
224 l0 205 81 4 c66 3 83 7 95 23 18 24 18 40 -2 59 -14 14 -105 16 -854 16
-749 0 -840 -2 -854 -16z"/>
</g>
</svg>
