<?xml version="1.0" standalone="no"?>
<!DOCTYPE svg PUBLIC "-//W3C//DTD SVG 20010904//EN"
 "http://www.w3.org/TR/2001/REC-SVG-20010904/DTD/svg10.dtd">
<svg version="1.0" xmlns="http://www.w3.org/2000/svg"
 width="600.000000pt" height="544.000000pt" viewBox="0 0 600.000000 544.000000"
 preserveAspectRatio="xMidYMid meet">

<g transform="translate(0.000000,544.000000) scale(0.100000,-0.100000)"
fill="#000000" stroke="none">
<path d="M2813 5021 c-424 -38 -793 -74 -820 -80 -150 -38 -253 -155 -272
-309 -9 -73 10 -326 30 -406 18 -73 80 -160 142 -201 69 -46 133 -65 216 -65
115 0 1583 129 1651 145 113 27 199 100 253 215 19 39 21 63 21 170 -1 182
-19 313 -53 385 -60 127 -177 204 -319 210 -44 2 -407 -25 -849 -64z m718 -88
c287 -134 286 -520 -1 -657 -59 -28 -74 -31 -160 -31 -86 0 -101 3 -162 32
-81 38 -146 102 -185 181 -24 50 -28 69 -28 147 0 72 5 100 22 138 46 99 126
173 228 209 80 28 203 20 286 -19z m-969 -115 c75 -35 147 -104 184 -175 26
-53 29 -67 29 -158 0 -122 -20 -170 -107 -256 -112 -112 -295 -141 -439 -68
-58 29 -133 103 -162 161 -103 203 2 441 226 514 68 22 200 13 269 -18z"/>
<path d="M3265 4806 c-60 -28 -87 -56 -114 -116 -55 -122 16 -261 154 -300
166 -47 333 100 295 260 -35 146 -196 222 -335 156z"/>
<path d="M2321 4696 c-49 -18 -111 -74 -132 -120 -35 -78 -19 -178 39 -239 48
-51 99 -71 177 -71 104 0 183 48 219 136 32 75 14 172 -42 232 -61 65 -176 93
-261 62z"/>
<path d="M942 3939 c-41 -20 -93 -43 -118 -50 -27 -8 -44 -19 -44 -29 0 -20
72 -253 106 -343 41 -109 119 -263 169 -332 121 -170 286 -262 616 -344 125
-31 401 -82 408 -76 5 6 33 257 28 261 -2 3 -53 13 -113 24 -385 67 -588 141
-684 248 -53 60 -121 182 -165 297 -30 78 -99 296 -110 344 -3 17 -10 32 -13
34 -4 2 -40 -13 -80 -34z"/>
<path d="M3125 3854 c-22 -2 -58 -6 -81 -9 l-41 -6 19 -57 c17 -48 19 -75 14
-172 -2 -63 -11 -143 -19 -177 l-14 -63 139 0 c76 0 138 1 138 3 0 1 7 40 15
87 17 99 18 273 2 345 l-12 50 -60 1 c-33 1 -78 -1 -100 -2z"/>
<path d="M4875 3618 c-68 -210 -148 -380 -208 -445 -79 -86 -219 -135 -524
-183 -84 -14 -79 2 -61 -167 l11 -114 26 5 c14 3 60 10 101 16 345 51 560 142
668 282 89 116 156 257 233 492 49 146 53 176 27 176 -24 0 -134 57 -170 89
-20 17 -37 31 -40 31 -2 0 -31 -82 -63 -182z"/>
<path d="M2460 3138 c-8 -22 -59 -493 -63 -587 -1 -32 3 -47 18 -57 16 -12
130 -14 682 -14 654 0 663 0 683 20 15 15 19 29 16 53 -3 18 -17 151 -31 297
-14 146 -30 275 -35 288 l-10 22 -625 0 -625 0 -10 -22z m1190 -71 c0 -2 11
-110 25 -241 14 -131 25 -242 25 -247 0 -5 -255 -9 -606 -9 l-607 0 7 48 c3
26 10 99 16 162 6 63 14 149 20 190 5 41 9 81 10 88 0 9 118 12 555 12 305 0
555 -1 555 -3z"/>
<path d="M2463 2328 c-69 -18 -97 -109 -50 -163 65 -74 187 -32 187 66 0 69
-66 116 -137 97z"/>
<path d="M2793 2328 c-69 -18 -97 -109 -50 -163 65 -74 187 -32 187 66 0 69
-66 116 -137 97z"/>
<path d="M2480 1031 c0 -126 -3 -236 -6 -244 -5 -13 -1 -13 33 -2 57 21 147
19 192 -5 l38 -19 7 52 c3 29 6 141 6 250 l0 197 -135 0 -135 0 0 -229z"/>
<path d="M3340 1253 c-1 -19 42 -469 46 -480 2 -9 19 -5 56 12 57 27 143 34
180 14 11 -6 22 -8 25 -5 5 5 -15 246 -34 414 l-6 52 -133 0 c-74 0 -134 -3
-134 -7z"/>
</g>
</svg>
